<svg width="300" height="300" viewBox="0 0 300 300" fill="none" xmlns="http://www.w3.org/2000/svg">
<g clip-path="url(#clip0_435_2481)">
<path d="M6.76804 6.76802H143.427V143.427H6.76804V6.76802Z" fill="#36BB71"/>
<path d="M73.3952 122.111L81.0846 131.714H84.0182V118.959H81.5037V128.561L73.8143 118.959H70.8807V131.714H73.3952V122.111ZM92.2975 129.873C90.5847 129.873 89.2545 129.126 88.9083 127.796H96.7435C96.8528 127.377 96.9075 126.958 96.9075 126.557C96.9075 124.097 94.8302 122.293 92.0606 122.293C89.0177 122.293 86.4302 124.115 86.4302 127.158C86.4302 129.892 88.6715 132.042 92.0606 132.042C93.737 132.042 95.4498 131.477 96.6706 130.857L95.96 128.962C94.6663 129.636 93.5365 129.873 92.2975 129.873ZM91.9148 124.316C93.3361 124.316 94.2472 124.954 94.484 126.029H88.963C89.3274 124.917 90.3478 124.316 91.9148 124.316ZM100.211 122.603H97.5693L101.87 131.714H104.512L108.83 122.603H106.152L103.2 128.999L100.211 122.603ZM115.465 129.873C113.753 129.873 112.423 129.126 112.076 127.796H119.911C120.021 127.377 120.075 126.958 120.075 126.557C120.075 124.097 117.998 122.293 115.229 122.293C112.186 122.293 109.598 124.115 109.598 127.158C109.598 129.892 111.839 132.042 115.229 132.042C116.905 132.042 118.618 131.477 119.839 130.857L119.128 128.962C117.834 129.636 116.705 129.873 115.465 129.873ZM115.083 124.316C116.504 124.316 117.415 124.954 117.652 126.029H112.131C112.495 124.917 113.516 124.316 115.083 124.316ZM127.88 122.293C126.295 122.293 125.038 123.642 124.509 124.626V122.603H122.104V131.714H124.509V127.195C124.509 125.518 126.131 124.534 127.643 124.534C127.989 124.534 128.463 124.644 128.9 124.844L129.411 122.658C128.955 122.439 128.39 122.293 127.88 122.293Z" fill="#FFFBEB"/>
<path d="M149.675 14.2848L285.585 -3.8147e-06L299.87 135.911L163.959 150.196L149.675 14.2848Z" fill="#E7497E"/>
<path d="M182.619 123.949C184.05 123.799 184.887 124.609 185.022 125.895L185.542 130.842L187.934 130.591L187.383 125.354C187.124 122.889 185.539 121.407 183.075 121.666C181.353 121.847 180.129 123.093 179.618 124.338L178.948 117.959L176.556 118.21L177.967 131.639L180.359 131.387L179.887 126.893C179.698 125.099 181.114 124.107 182.619 123.949ZM193.195 124.816C191.329 125.012 189.568 126.04 189.772 127.979C189.943 129.61 191.33 130.601 193.033 130.422C194.574 130.26 195.863 129.281 196.625 128.157C196.767 129.168 197.365 129.966 198.579 129.839C199.322 129.76 200.371 129.284 201.31 128.636L200.627 126.839C200.13 127.166 199.68 127.414 199.408 127.443C199.154 127.47 198.956 127.326 198.927 127.054L198.584 123.792C198.323 121.309 196.735 120.139 194.252 120.4C192.82 120.55 190.977 121.312 189.891 121.793L190.718 123.904C191.989 123.276 193.323 122.714 194.265 122.615C195.407 122.495 196.089 123.065 196.188 124.007L196.299 125.058C195.491 124.868 194.174 124.713 193.195 124.816ZM193.597 128.292C192.836 128.372 192.26 128.121 192.198 127.523C192.129 126.87 192.687 126.427 193.484 126.343C194.354 126.252 195.415 126.232 196.43 126.308L196.466 126.653C195.703 127.576 194.503 128.197 193.597 128.292ZM203.041 119.843L200.413 120.118L205.642 128.73L208.27 128.454L211.612 118.942L208.948 119.221L206.681 125.891L203.041 119.843ZM218.971 125.478C217.268 125.657 215.867 125.053 215.384 123.767L223.176 122.948C223.241 122.519 223.251 122.097 223.209 121.698C222.952 119.252 220.698 117.675 217.943 117.964C214.917 118.283 212.534 120.365 212.853 123.391C213.138 126.11 215.592 128.014 218.963 127.659C220.63 127.484 222.274 126.744 223.424 126L222.519 124.189C221.302 124.995 220.204 125.349 218.971 125.478ZM218.01 119.991C219.423 119.843 220.396 120.382 220.744 121.426L215.253 122.003C215.5 120.86 216.452 120.155 218.01 119.991Z" fill="#FFFBEB"/>
<path d="M14.2848 149.675L150.196 163.959L135.911 299.87L0 285.585L14.2848 149.675Z" fill="#106BD0"/>
<path d="M131.309 180.618L128.808 180.355L127.475 193.04L129.975 193.303L131.309 180.618Z" fill="#FFFBEB"/>
<path d="M156.443 156.443H293.102V293.102H156.443V156.443Z" fill="#EEBF38"/>
<path d="M176.09 175.426C174.377 175.426 173.047 174.679 172.701 173.349H180.536C180.646 172.93 180.7 172.511 180.7 172.11C180.7 169.65 178.623 167.846 175.853 167.846C172.81 167.846 170.223 169.669 170.223 172.712C170.223 175.445 172.464 177.595 175.853 177.595C177.53 177.595 179.243 177.03 180.463 176.41L179.753 174.515C178.459 175.19 177.329 175.426 176.09 175.426ZM175.708 169.869C177.129 169.869 178.04 170.507 178.277 171.582H172.756C173.12 170.47 174.141 169.869 175.708 169.869ZM184.004 168.156H181.362L185.662 177.267H188.304L192.623 168.156H189.944L186.992 174.552L184.004 168.156ZM199.259 175.426C197.546 175.426 196.216 174.679 195.869 173.349H203.705C203.814 172.93 203.869 172.511 203.869 172.11C203.869 169.65 201.791 167.846 199.022 167.846C195.979 167.846 193.391 169.669 193.391 172.712C193.391 175.445 195.633 177.595 199.022 177.595C200.698 177.595 202.411 177.03 203.632 176.41L202.921 174.515C201.627 175.19 200.498 175.426 199.259 175.426ZM198.876 169.869C200.297 169.869 201.208 170.507 201.445 171.582H195.924C196.289 170.47 197.309 169.869 198.876 169.869ZM211.673 167.846C210.088 167.846 208.83 169.195 208.302 170.179V168.156H205.897V177.267H208.302V172.748C208.302 171.072 209.924 170.088 211.436 170.088C211.782 170.088 212.256 170.197 212.693 170.397L213.203 168.211C212.748 167.992 212.183 167.846 211.673 167.846Z" fill="#FFFBEB"/>
</g>
<defs>
<clipPath id="clip0_435_2481">
<rect width="300" height="300" fill="white"/>
</clipPath>
</defs>
</svg>
