<svg width="142" height="52" viewBox="0 0 142 52" fill="none" xmlns="http://www.w3.org/2000/svg">
<path d="M11.1303 21.4445L10.9145 23.5486C9.65426 23.3043 8.14405 23.1937 6.79691 23.474C5.40278 23.7642 4.45306 24.305 4.6291 25.1509C4.84753 26.2004 6.58492 26.0677 8.43061 26.1411C10.4584 26.2257 12.6323 26.5414 13.0757 28.6718C13.5223 30.8178 11.5535 32.6657 8.87492 33.2232C7.27715 33.5557 5.30615 33.5083 3.90105 33.196L4.03265 31.1585C5.33073 31.4276 6.95123 31.597 8.37669 31.3003C9.95879 30.9711 11.1683 30.3435 10.927 29.1843C10.738 28.2758 9.32888 28.2585 7.70313 28.221C5.53437 28.1657 2.98188 27.9942 2.50917 25.7229C2.09188 23.7178 3.71732 22.1048 6.34893 21.5571C7.82138 21.2507 9.84526 21.238 11.1303 21.4445ZM24.3552 21.8463C24.8116 24.0393 23.145 26.0041 20.4821 26.5584L17.2395 27.2332L18.0089 30.93L15.8472 31.3799L13.5652 20.4148L19.3297 19.2151C21.6793 18.7261 23.9151 19.7316 24.3552 21.8463ZM19.7307 21.1418L16.1279 21.8916L16.8385 25.3065L20.0811 24.6316C21.5848 24.3187 22.4185 23.3771 22.1838 22.2492C21.9979 21.3564 20.9838 20.881 19.7307 21.1418ZM28.1003 28.8298L25.8183 17.8647L35.2169 15.9087L35.6179 17.8354L28.3809 19.3415L28.9025 21.8478L35.4032 20.4949L35.8042 22.4216L29.3035 23.7745L29.861 26.4532L37.2389 24.9177L37.6399 26.8444L28.1003 28.8298ZM48.6053 24.5623L47.2762 22.7306L41.2611 23.9825L40.7731 26.1923L38.5801 26.6487L41.2167 14.66L43.676 14.1482L50.8766 24.0896L48.6053 24.5623ZM42.8734 16.6522L41.7217 21.8765L46.0137 20.9832L42.8734 16.6522ZM52.3178 12.3496L53.4784 17.9261L57.957 11.176L60.6983 10.6055L56.1407 17.2904L63.043 21.5575L60.0824 22.1737L53.498 18.0201L54.5999 23.3147L52.4382 23.7646L50.1561 12.7995L52.3178 12.3496ZM64.4179 9.83137L66.7 20.7964L64.5383 21.2463L62.2562 10.2813L64.4179 9.83137ZM69.9688 11.5034L71.6869 19.7585L69.5252 20.2084L67.2431 9.24339L69.7651 8.71852L78.0935 15.5979L76.3755 7.34277L78.5371 6.89288L80.8192 17.8579L78.2972 18.3828L69.9688 11.5034ZM92.2726 4.62262L92.0757 6.73913C90.7965 6.48238 89.2172 6.35348 87.823 6.64362C85.5517 7.11633 83.7239 8.9349 84.2162 11.3002C84.7084 13.6655 87.0525 14.8773 89.4335 14.3818C90.3264 14.196 91.2056 13.8659 92.0306 13.4327L91.434 10.5662L93.5957 10.1163L94.4629 14.283C93.299 15.1299 91.4949 15.963 89.8345 16.3085C85.8401 17.1398 82.6758 14.9711 82.0107 11.7756C81.2609 8.17275 83.8662 5.45694 87.422 4.71691C88.9258 4.40394 90.9843 4.40045 92.2726 4.62262Z" fill="black"/>
<path d="M84.4085 25.2445L83.4072 27.1195C82.3274 26.3874 80.9212 25.6568 79.5235 25.3843C77.2464 24.9403 74.8569 25.9089 74.3945 28.2803C73.9322 30.6516 75.6239 32.6768 78.011 33.1422C78.9061 33.3167 79.8445 33.353 80.773 33.2732L81.3333 30.3993L83.5005 30.8218L82.686 34.9991C81.285 35.3291 79.299 35.3984 77.6344 35.0738C73.6298 34.2931 71.5526 31.068 72.1772 27.8643C72.8814 24.2523 76.3352 22.7576 79.9001 23.4526C81.4077 23.7466 83.3069 24.5407 84.4085 25.2445ZM93.8609 37.9114L93.345 35.708L87.3145 34.5322L86.0087 36.3805L83.8101 35.9519L90.8845 25.9202L93.3501 26.4009L96.138 38.3554L93.8609 37.9114ZM91.6402 28.3987L88.5549 32.769L92.8579 33.6079L91.6402 28.3987ZM109.749 41.009L111.002 32.8256L105.742 39.2335L104.203 38.9335L101.623 31.0134L99.7137 39.0525L97.5465 38.63L100.161 27.7288L102.941 28.2707L105.556 36.426C107.372 34.2207 109.162 31.9778 110.918 29.8261L113.604 30.3497L111.932 41.4346L109.749 41.009ZM114.604 41.9556L116.747 30.9626L126.17 32.7997L125.793 34.7313L118.538 33.3168L118.048 35.8294L124.565 37.1001L124.189 39.0317L117.671 37.7611L117.148 40.4465L124.545 41.8886L124.168 43.8203L114.604 41.9556ZM136.924 35.418L135.91 37.2743C134.843 36.5609 133.493 35.8739 132.143 35.6106C130.745 35.3381 129.66 35.4689 129.495 36.3169C129.29 37.3691 130.943 37.9196 132.616 38.7023C134.453 39.5657 136.335 40.6988 135.918 42.8346C135.499 44.9861 132.968 45.9271 130.282 45.4036C128.681 45.0913 126.882 44.2841 125.707 43.452L126.618 41.6245C127.71 42.3754 129.139 43.1592 130.568 43.4379C132.154 43.7471 133.512 43.637 133.739 42.4749C133.916 41.564 132.624 41.0023 131.14 40.338C129.162 39.447 126.875 38.3002 127.319 36.0231C127.711 34.0129 129.834 33.1554 132.472 33.6698C133.948 33.9576 135.819 34.7299 136.924 35.418Z" fill="black"/>
<rect x="3" y="38.4517" width="66" height="13" rx="2" transform="rotate(-11.76 3 38.4517)" fill="#EE6999"/>
<rect x="99.4873" y="11" width="42.7444" height="13" rx="2" transform="rotate(11.03 99.4873 11)" fill="#36BB71"/>
</svg>
